HIERARCHY
ROOT SpineBase
{
  OFFSET 0.000000 0.000000 0.000000
  CHANNELS 6 Xposition Yposition Zposition Zrotation Xrotation Yrotation
  JOINT SpineMid
  {
    OFFSET 0.000000 29.333936 0.000000
    CHANNELS 3 Zrotation Xrotation Yrotation
    JOINT SpineShoulder
    {
      OFFSET -0.077174 21.756832 -0.730385
      CHANNELS 3 Zrotation Xrotation Yrotation
      JOINT Neck
      {
        OFFSET -0.058722 7.199326 -0.568661
        CHANNELS 3 Zrotation Xrotation Yrotation
        JOINT Head
        {
          OFFSET -1.516661 11.273224 0.341551
          CHANNELS 3 Zrotation Xrotation Yrotation
          End Site
          {
            OFFSET 0 0 0
          }
        }
      }
      JOINT ShoulderLeft
      {
        OFFSET -16.083569 -2.362648 4.222395
        CHANNELS 3 Zrotation Xrotation Yrotation
        JOINT ElbowLeft
        {
          OFFSET -3.784646 -28.389334 1.874735
          CHANNELS 3 Zrotation Xrotation Yrotation
          JOINT WristLeft
          {
            OFFSET -2.215237 -20.948132 -5.493458
            CHANNELS 3 Zrotation Xrotation Yrotation
            JOINT HandLeft
            {
              OFFSET 1.415210 -5.420049 -1.938315
              CHANNELS 3 Zrotation Xrotation Yrotation
              JOINT HandTipLeft
              {
                OFFSET 0.365611 -6.897556 -2.081822
                CHANNELS 3 Zrotation Xrotation Yrotation
                End Site
                {
                  OFFSET 0 0 0
                }
              }
              JOINT ThumbLeft
              {
                OFFSET -3.662516 -0.479676 -1.357347
                CHANNELS 3 Zrotation Xrotation Yrotation
                End Site
                {
                  OFFSET 0 0 0
                }
              }
            }
          }
        }
      }
      JOINT ShoulderRight
      {
        OFFSET 15.415771 -2.092460 -5.324791
        CHANNELS 3 Zrotation Xrotation Yrotation
        JOINT ElbowRight
        {
          OFFSET 6.690812 -23.675866 -1.971984
          CHANNELS 3 Zrotation Xrotation Yrotation
          JOINT WristRight
          {
            OFFSET -0.816783 -22.356233 -6.405827
            CHANNELS 3 Zrotation Xrotation Yrotation
            JOINT HandRight
            {
              OFFSET -2.492046 -7.025457 -1.057529
              CHANNELS 3 Zrotation Xrotation Yrotation
              JOINT HandTipRight
              {
                OFFSET -0.052136 -6.955094 -1.848113
                CHANNELS 3 Zrotation Xrotation Yrotation
                End Site
                {
                  OFFSET 0 0 0
                }
              }
              JOINT ThumbRight
              {
                OFFSET 1.877201 -3.407741 -2.001299
                CHANNELS 3 Zrotation Xrotation Yrotation
                End Site
                {
                  OFFSET 0 0 0
                }
              }
            }
          }
        }
      }
    }
  }
  JOINT HipLeft
  {
    OFFSET -5.835671 0.507991 -1.869140
    CHANNELS 3 Zrotation Xrotation Yrotation
    JOINT KneeLeft
    {
      OFFSET -7.943760 -28.449552 0.165653
      CHANNELS 3 Zrotation Xrotation Yrotation
      JOINT AnkleLeft
      {
        OFFSET -2.315810 -38.181755 3.964542
        CHANNELS 3 Zrotation Xrotation Yrotation
        JOINT FootLeft
        {
          OFFSET -3.450828 -2.375364 -15.370011
          CHANNELS 3 Zrotation Xrotation Yrotation
          End Site
          {
            OFFSET 0 0 0
          }
        }
      }
    }
  }
  JOINT HipRight
  {
    OFFSET 5.229580 0.785361 -4.986751
    CHANNELS 3 Zrotation Xrotation Yrotation
    JOINT KneeRight
    {
      OFFSET 6.331479 -25.577846 0.637895
      CHANNELS 3 Zrotation Xrotation Yrotation
      JOINT AnkleRight
      {
        OFFSET 0.477551 -38.737703 10.055905
        CHANNELS 3 Zrotation Xrotation Yrotation
        JOINT FootRight
        {
          OFFSET -2.810428 -7.865363 -5.865314
          CHANNELS 3 Zrotation Xrotation Yrotation
          End Site
          {
            OFFSET 0 0 0
          }
        }
      }
    }
  }
}
MOTION
Frames: 13
Frame Time: 0.033333
31.002230 81.424745 374.858905 -1.112014 -0.694873 24.648682 -0.927429 -0.570308 -24.728451 -0.699439 0.025652 -0.129938 20.563704 -6.227721 -0.683778 0.000000 0.000000 0.000000 -115.054504 37.560301 39.596723 -117.855047 57.561527 -100.170068 6.031215 -11.973113 36.334908 -4.114941 3.807472 -9.883506 0.000000 0.000000 0.000000 0.000000 0.000000 0.000000 165.140090 76.277491 -124.762589 176.386412 76.432723 25.554249 -16.841854 -24.908261 -76.237294 -17.536806 -1.111395 8.435216 0.000000 0.000000 0.000000 0.000000 0.000000 0.000000 6.594865 -2.358655 -24.495540 -7.726084 -1.663731 -0.166935 9.009380 -29.171430 -1.456046 0.000000 0.000000 0.000000 -3.086665 -3.146564 -26.041859 3.771019 6.300990 1.393308 -11.149873 20.588960 0.700213 0.000000 0.000000 0.000000
30.735634 82.764438 374.968596 -0.386597 -2.236329 26.154810 -0.665578 -0.747933 -26.198020 -0.708999 0.217503 -0.076101 13.850093 -3.078814 -1.077684 0.000000 0.000000 0.000000 -113.964262 37.106721 39.309062 -125.967052 58.141468 -91.806715 3.222196 -8.232095 29.808261 -1.288828 2.412874 -9.194303 0.000000 0.000000 0.000000 0.000000 0.000000 0.000000 149.209713 73.299996 -106.841327 165.676875 75.274429 38.217240 -17.325152 -23.391396 -75.326200 -16.681297 -1.889184 9.039500 0.000000 0.000000 0.000000 0.000000 0.000000 0.000000 7.293701 -0.754524 -26.289715 -8.425868 -1.983981 -0.106545 8.795104 -27.097816 0.426831 0.000000 0.000000 0.000000 -2.893755 -1.329105 -27.395321 3.210747 6.238896 1.308800 -7.541762 24.935153 -2.914060 0.000000 0.000000 0.000000
30.464188 84.317375 375.112773 0.238236 -3.958672 26.330818 -0.343389 -0.524279 -26.331048 -0.595560 0.183909 -0.034641 7.159131 0.193130 -0.980188 0.000000 0.000000 0.000000 -107.655346 36.929565 36.244223 -135.720410 56.354691 -87.338362 -6.124477 -13.064833 26.398981 8.236733 5.878134 -11.894131 0.000000 0.000000 0.000000 0.000000 0.000000 0.000000 142.627740 69.981692 -98.942873 158.620630 74.865575 46.711033 -10.285100 -21.775141 -66.334539 -19.592549 -7.560837 3.015234 0.000000 0.000000 0.000000 0.000000 0.000000 0.000000 8.073540 0.878228 -26.710878 -8.926651 -1.934587 -0.086400 7.416579 -21.762220 1.949902 0.000000 0.000000 0.000000 -2.314294 0.790027 -27.339653 2.647128 5.930293 1.156868 -6.085409 28.135867 -4.565767 0.000000 0.000000 0.000000
30.127345 86.438396 375.374551 -0.679348 -4.286409 33.654561 -0.123179 -0.037397 -33.718590 -0.336675 -0.087710 -0.069737 5.876704 0.497284 -0.804824 0.000000 0.000000 0.000000 -89.075406 34.831825 25.270089 -150.081244 54.540643 -92.361788 -6.972986 -14.385298 28.756697 13.640797 0.843998 -5.358514 0.000000 0.000000 0.000000 0.000000 0.000000 0.000000 139.504274 70.399663 -95.352431 167.957197 76.494640 41.395390 -2.334573 -20.074191 -56.562606 -28.336671 -11.483441 8.412523 0.000000 0.000000 0.000000 0.000000 0.000000 0.000000 10.437824 0.532693 -34.522503 -9.449574 -3.260300 0.188064 5.125511 -13.504021 2.204738 0.000000 0.000000 0.000000 -1.084293 0.453024 -34.800100 2.041212 6.258730 1.175661 -3.959793 29.340885 -6.420972 0.000000 0.000000 0.000000
29.905348 87.739490 375.480676 -0.680747 -6.100801 36.332643 -0.112955 0.823360 -36.395442 -0.170736 -0.116537 -0.089810 8.225984 1.926056 -1.057404 0.000000 0.000000 0.000000 -78.376829 33.526134 21.031950 -153.942717 58.752210 -108.810250 -0.523831 -19.549142 38.389930 18.267317 9.144133 -13.936398 0.000000 0.000000 0.000000 0.000000 0.000000 0.000000 144.354775 70.516599 -100.959942 -177.517135 76.038522 24.064480 7.001573 -15.044530 -43.256488 -27.850636 -7.074043 26.017305 0.000000 0.000000 0.000000 0.000000 0.000000 0.000000 12.305657 1.668221 -37.662619 -9.886685 -3.654865 0.285071 4.175854 -10.059921 1.370169 0.000000 0.000000 0.000000 0.310352 1.980453 -37.427595 1.882996 6.142316 1.146413 -5.946964 25.111527 -3.819040 0.000000 0.000000 0.000000
29.777880 88.165586 375.453902 0.206830 -8.507524 36.304354 -0.091712 1.186878 -36.278111 0.118505 -0.298803 -0.062853 8.958850 2.056735 -1.703562 0.000000 0.000000 0.000000 -74.121128 33.927997 20.999627 -150.028672 65.843564 -130.121059 2.176515 -24.392752 42.309628 22.603806 14.716029 -17.376172 0.000000 0.000000 0.000000 0.000000 0.000000 0.000000 154.225836 70.728024 -114.388978 -148.588682 75.812455 -4.071084 10.177843 -7.025147 -33.336230 -21.518672 -2.186589 34.298221 0.000000 0.000000 0.000000 0.000000 0.000000 0.000000 13.197265 3.862666 -38.034977 -10.018487 -3.310678 0.270750 3.773267 -9.047280 0.735655 0.000000 0.000000 0.000000 1.381312 4.627522 -37.250383 1.959276 5.839494 1.107361 -7.049107 24.278531 -2.982795 0.000000 0.000000 0.000000
29.946320 88.198083 375.173031 3.365180 -13.799546 35.097346 -0.007867 1.030611 -34.597772 0.285141 -0.081339 0.054158 12.324767 0.596127 -3.723563 0.000000 0.000000 0.000000 -81.299186 36.033927 27.878900 -149.444104 66.928623 -131.334990 -2.605823 -28.336028 38.321884 15.633659 23.539018 -26.525596 0.000000 0.000000 0.000000 0.000000 0.000000 0.000000 167.946129 71.050066 -137.093197 -113.953424 67.725024 -33.530624 11.308802 2.431798 -23.938746 -20.305485 0.216167 39.898182 0.000000 0.000000 0.000000 0.000000 0.000000 0.000000 13.099668 9.747546 -37.312870 -9.689973 -2.384523 0.151503 3.824259 -9.533571 -0.932907 0.000000 0.000000 0.000000 1.628157 11.303011 -35.465832 2.861790 5.483877 1.112440 -6.492773 23.728257 -3.806758 0.000000 0.000000 0.000000
30.098988 87.012664 374.998909 4.562094 -16.641177 31.881866 -0.025986 0.235190 -31.114750 -0.131355 0.220235 0.120091 19.408543 -0.266284 -5.790753 0.000000 0.000000 0.000000 -83.396246 34.048678 29.629942 -141.572347 68.531390 -144.465560 -4.093913 -29.171584 36.051956 7.141654 24.464166 -26.772823 0.000000 0.000000 0.000000 0.000000 0.000000 0.000000 -177.760824 72.324298 -157.476747 -103.024098 57.251067 -41.494690 9.554537 13.318677 -14.760953 -17.523983 -5.524101 29.020609 0.000000 0.000000 0.000000 0.000000 0.000000 0.000000 12.622773 12.955983 -34.130197 -9.360441 -1.672152 0.050000 3.497348 -8.964549 -1.121366 0.000000 0.000000 0.000000 0.850622 14.580749 -31.817636 3.754723 5.787431 1.196180 -3.373153 19.694538 -5.635345 0.000000 0.000000 0.000000
30.208230 85.351468 374.992169 6.431894 -16.617193 27.709571 0.241460 -0.273448 -26.648616 -0.131203 0.395689 0.209975 17.494198 -11.064771 -5.026457 0.000000 0.000000 0.000000 -84.716781 41.575816 33.991889 -76.597825 80.594111 133.001998 -0.828606 -29.318853 35.970133 13.951450 19.702407 -18.633074 0.000000 0.000000 0.000000 0.000000 0.000000 0.000000 -166.059746 80.816931 -175.969322 -90.676077 50.026030 -33.796065 4.597903 4.638503 -24.814633 -11.736176 8.425016 48.818044 0.000000 0.000000 0.000000 0.000000 0.000000 0.000000 9.263894 14.302675 -29.132218 -8.776557 -1.213935 -0.041785 5.009818 -16.469476 -3.111314 0.000000 0.000000 0.000000 -2.119710 15.701469 -26.841338 4.215528 5.656812 1.188972 -3.367925 19.275235 -5.755354 0.000000 0.000000 0.000000
30.306479 83.120831 375.042769 6.452133 -15.493890 22.692346 0.457532 -0.443098 -21.703201 0.086418 0.504205 0.206564 14.899758 -12.954272 -4.436842 0.000000 0.000000 0.000000 -85.946411 44.511818 35.430906 -22.343419 68.829098 67.772671 0.911860 -24.627006 34.577165 21.442370 15.581585 -11.131040 0.000000 0.000000 0.000000 0.000000 0.000000 0.000000 -110.799754 83.899252 124.275451 -81.496314 43.149761 -30.106903 4.063713 3.609890 -25.896040 -10.264942 10.239147 47.817688 0.000000 0.000000 0.000000 0.000000 0.000000 0.000000 6.573805 13.683785 -23.407465 -7.937465 -0.805641 -0.138117 5.098826 -17.512264 -2.683389 0.000000 0.000000 0.000000 -3.756309 14.538491 -21.705607 4.140198 5.593860 1.166037 -4.072898 20.726731 -5.673469 0.000000 0.000000 0.000000
30.452464 80.916111 375.132380 5.554455 -13.824670 18.838838 0.873411 -0.747284 -18.099082 0.355469 0.621748 0.179841 9.768454 -8.000279 -3.864882 0.000000 0.000000 0.000000 -81.367820 43.643032 31.168200 -21.097659 63.128400 60.098425 -4.750153 -16.438642 31.821168 30.104745 2.067310 -0.176973 0.000000 0.000000 0.000000 0.000000 0.000000 0.000000 -35.773755 78.413269 45.818742 -84.736124 35.092845 -21.993912 17.019668 13.526468 -15.942536 -13.418827 -2.594005 28.568897 0.000000 0.000000 0.000000 0.000000 0.000000 0.000000 4.940522 12.159441 -19.166329 -6.912043 -0.768070 -0.182214 6.414427 -23.283878 -0.724292 0.000000 0.000000 0.000000 -4.334286 12.221496 -18.178311 3.754969 6.008113 1.151428 -7.126106 24.438243 -3.957698 0.000000 0.000000 0.000000
30.604820 79.437986 375.291091 3.826307 -11.143657 15.795182 1.341883 -0.773821 -15.409740 0.630182 0.843294 0.135121 4.877029 -3.669601 -2.744586 0.000000 0.000000 0.000000 -71.723741 40.999959 23.181277 -13.033457 66.247095 52.870641 -22.689131 -15.177524 17.516941 52.069986 0.689436 14.647157 0.000000 0.000000 0.000000 0.000000 0.000000 0.000000 -20.313302 65.633521 27.296213 -82.477792 27.857204 -13.892267 21.575694 17.108460 -13.793275 -10.865720 -8.453836 21.375718 0.000000 0.000000 0.000000 0.000000 0.000000 0.000000 4.237534 9.223004 -15.900613 -6.016061 -0.447239 -0.262320 7.316670 -26.611454 0.200587 0.000000 0.000000 0.000000 -3.955457 9.038819 -15.680971 3.333259 6.140016 1.064648 -5.493373 25.849211 -5.279039 0.000000 0.000000 0.000000
30.689363 78.571548 375.516295 0.993780 -7.133814 14.170803 1.580003 -0.443236 -14.141736 0.924071 0.836809 0.081863 2.610848 -1.918805 -1.563559 0.000000 0.000000 0.000000 -59.742278 35.679939 13.958376 -7.024442 63.045090 42.508911 -12.682922 -10.149385 25.106230 54.768087 2.819082 14.767597 0.000000 0.000000 0.000000 0.000000 0.000000 0.000000 -14.591294 53.227859 20.448545 -77.766102 23.063399 -7.844904 25.465190 13.626619 -14.368114 -12.477287 -6.526158 20.340915 0.000000 0.000000 0.000000 0.000000 0.000000 0.000000 5.017668 4.878176 -14.245990 -5.241459 -0.433834 -0.266970 7.250595 -26.605281 0.238960 0.000000 0.000000 0.000000 -2.163787 4.527864 -14.724260 2.857757 6.053075 0.972817 -3.275659 29.242969 -7.687861 0.000000 0.000000 0.000000
